<svg version="1.1" id="Layer_1" xmlns="http://www.w3.org/2000/svg" xmlns:xlink="http://www.w3.org/1999/xlink" x="0px" y="0px"
	 width="100%" viewBox="0 0 2000 2000" enable-background="new 0 0 2000 2000" xml:space="preserve">
<path fill="none" opacity="1.000000" stroke="#000000" stroke-linecap="round" stroke-linejoin="round" stroke-width="14.000000"
	d="
M471.500000,903.500000 
	C419.666656,903.500000 367.833344,903.500000 316.000000,903.500000 
	C315.000000,903.500000 313.997406,903.453003 313.000427,903.507996 
	C307.916565,903.788391 306.788330,904.916565 306.507904,910.000427 
	C306.452911,910.997375 306.500000,912.000000 306.500000,913.000000 
	C306.500000,1027.666626 306.500153,1142.333374 306.499207,1257.000000 
	C306.499176,1260.120117 306.248932,1263.265869 308.000793,1266.475952 
	C310.868591,1267.770630 314.447723,1267.502686 318.000000,1267.502686 
	C773.666687,1267.499756 1229.333374,1267.499878 1685.000000,1267.500732 
	C1688.120117,1267.500732 1691.265869,1267.751099 1694.454834,1266.010742 
	C1695.773560,1263.131714 1695.503174,1259.552612 1695.503052,1256.000000 
	C1695.499268,1142.166626 1695.498535,1028.333374 1695.506714,914.500000 
	C1695.506958,911.210266 1695.680176,907.913147 1694.175659,904.393311 
	C1685.246094,902.553894 1675.834106,903.900024 1666.500000,903.500000 
"/>
<path fill="none" opacity="1.000000" stroke="#000000" stroke-linecap="round" stroke-linejoin="round" stroke-width="6.000000"
	d="
M1615.000000,1169.749878 
	C1613.333374,1169.666626 1611.666626,1169.510376 1610.000000,1169.510254 
	C1456.166626,1169.499146 1302.333374,1169.500000 1148.500000,1169.500000 
"/>
<path fill="none" opacity="1.000000" stroke="#000000" stroke-linecap="round" stroke-linejoin="round" stroke-width="6.000000"
	d="
M805.000000,1103.250000 
	C785.195557,1104.707886 771.233826,1114.380737 764.045227,1133.017456 
	C756.556946,1152.431152 764.480469,1175.396606 781.944641,1186.090332 
	C808.724365,1202.488159 843.499023,1188.308228 849.676331,1156.936279 
	C854.955627,1130.124756 836.617920,1106.276123 809.500366,1103.496216 
	C808.164062,1103.359131 806.833313,1103.166626 805.500000,1103.000000 
"/>
<path fill="none" opacity="1.000000" stroke="#000000" stroke-linecap="round" stroke-linejoin="round" stroke-width="25.000000"
	d="
M907.500000,883.500061 
	C902.833374,885.000061 897.976196,888.091858 893.552368,887.562500 
	C888.917969,887.007874 884.344971,883.719238 879.482666,882.573486 
	C863.509460,878.809509 847.637634,877.729492 832.500000,886.000000 
"/>
<path fill="none" opacity="1.000000" stroke="#000000" stroke-linecap="round" stroke-linejoin="round" stroke-width="24.000000"
	d="
M872.000000,1029.000000 
	C855.639526,1034.765869 839.185303,1034.229736 823.611572,1027.250977 
	C813.624146,1022.775513 804.392334,1022.137634 794.500000,1026.000000 
"/>
<path fill="none" opacity="1.000000" stroke="#000000" stroke-linecap="round" stroke-linejoin="round" stroke-width="6.000000"
	d="
M575.500000,1109.500000 
	C573.708557,1105.447388 569.606140,1106.565552 566.492615,1105.522095 
	C557.151794,1102.391235 548.248474,1102.643921 539.440735,1107.900757 
	C531.626770,1112.564453 527.055176,1126.352173 536.492676,1135.008057 
	C542.087891,1140.139771 549.262634,1142.127808 555.998535,1145.003418 
	C561.015686,1147.145142 565.976746,1149.262207 570.554138,1152.421509 
	C583.739807,1161.522339 581.427917,1184.138184 565.546021,1190.612793 
	C554.113220,1195.273682 543.592285,1192.904907 533.011719,1188.472046 
	C531.095764,1187.669189 529.333374,1186.500000 527.500000,1185.500000 
"/>
<path fill="none" opacity="1.000000" stroke="#000000" stroke-linecap="round" stroke-linejoin="round" stroke-width="7.000000"
	d="
M922.500000,1152.500000 
	C931.000000,1152.500000 939.580750,1153.195923 947.967773,1152.222290 
	C952.535645,1151.692139 956.876526,1148.340454 959.957825,1144.466431 
	C966.180542,1136.642578 967.960632,1127.833130 963.928589,1118.531006 
	C959.943787,1109.337646 952.112549,1105.308838 942.496399,1104.545654 
	C937.183289,1104.123901 931.830383,1104.229248 926.500977,1103.979248 
	C922.538086,1103.793091 920.924011,1105.540039 920.959900,1109.500366 
	C921.070068,1121.666016 921.000000,1133.833374 921.000000,1146.000000 
	C921.000000,1161.333374 921.000000,1176.666626 921.000000,1192.000000 
"/>
<path fill="none" opacity="1.000000" stroke="#000000" stroke-linecap="round" stroke-linejoin="round" stroke-width="3.000000"
	d="
M1435.500000,862.500000 
	C1439.666626,872.500000 1443.833252,882.500000 1448.000000,892.500000 
"/>
<path fill="none" opacity="1.000000" stroke="#000000" stroke-linecap="round" stroke-linejoin="round" stroke-width="3.000000"
	d="
M1588.500000,1048.500000 
	C1584.333374,1038.833374 1580.166748,1029.166626 1576.000000,1019.500000 
"/>
<path fill="none" opacity="1.000000" stroke="#000000" stroke-linecap="round" stroke-linejoin="round" stroke-width="7.000000"
	d="
M1097.000000,1104.000000 
	C1081.833374,1104.000000 1066.666626,1103.991577 1051.500000,1104.004150 
	C1045.701172,1104.008911 1045.012451,1104.701172 1045.003906,1110.500000 
	C1044.989380,1120.500000 1045.000000,1130.500000 1045.000000,1140.500000 
	C1045.000000,1155.500000 1044.991577,1170.500000 1045.004150,1185.500000 
	C1045.008911,1191.298828 1045.701172,1191.991455 1051.500000,1191.995850 
	C1067.333374,1192.008179 1083.166626,1192.000000 1099.000000,1192.000000 
"/>
<path fill="none" opacity="1.000000" stroke="#000000" stroke-linecap="round" stroke-linejoin="round" stroke-width="24.000000"
	d="
M695.500000,905.500000 
	C689.127197,909.467712 684.771240,914.910461 681.913757,921.965088 
	C675.522827,937.743469 668.652039,953.327087 662.009033,969.003845 
	C660.050354,973.626099 658.642212,978.415405 659.049011,983.496094 
	C659.220581,985.639160 658.545593,987.260132 656.984985,988.480774 
	C650.903748,993.237122 649.105286,1000.543457 646.091187,1007.042297 
	C642.854126,1014.021790 640.362793,1021.345276 637.468628,1028.487305 
	C637.026489,1029.578369 636.389526,1030.844971 635.463318,1031.443359 
	C629.870239,1035.057129 624.166626,1038.500000 618.499939,1042.000000 
"/>
<path fill="none" opacity="1.000000" stroke="#000000" stroke-linecap="round" stroke-linejoin="round" stroke-width="7.000000"
	d="
M670.500000,1105.500000 
	C670.333313,1107.500000 670.023987,1109.499878 670.021606,1111.500000 
	C669.989380,1138.333374 670.000000,1165.166626 670.000000,1192.000000 
"/>
<path fill="none" opacity="1.000000" stroke="#000000" stroke-linecap="round" stroke-linejoin="round" stroke-width="4.000000"
	d="
M695.500000,861.500000 
	C695.500000,871.833313 695.500000,882.166687 695.500000,892.500000 
"/>
<path fill="none" opacity="1.000000" stroke="#000000" stroke-linecap="round" stroke-linejoin="round" stroke-width="4.000000"
	d="
M754.500000,1030.500000 
	C760.166687,1034.166626 765.833313,1037.833374 771.500000,1041.500000 
"/>
<path fill="none" opacity="1.000000" stroke="#000000" stroke-linecap="round" stroke-linejoin="round" stroke-width="25.000000"
	d="
M730.500000,986.000000 
	C723.521362,989.284241 716.201111,990.308167 708.497620,990.079468 
	C697.840332,989.763062 687.164978,989.886475 676.500671,990.044495 
	C670.521057,990.133057 664.804443,989.426086 659.500000,986.500000 
"/>
<path fill="none" opacity="1.000000" stroke="#000000" stroke-linecap="round" stroke-linejoin="round" stroke-width="7.000000"
	d="
M1092.000000,1148.000000 
	C1078.666626,1148.000000 1065.333374,1148.019043 1052.000122,1147.977783 
	C1050.166138,1147.972046 1048.333374,1147.666626 1046.500000,1147.499878 
"/>
<path fill="none" opacity="1.000000" stroke="#000000" stroke-linecap="round" stroke-linejoin="round" stroke-width="6.000000"
	d="
M948.999939,1153.000000 
	C956.666626,1165.666748 964.403625,1178.291992 971.912903,1191.051270 
	C972.875366,1192.686523 974.665405,1192.201782 975.500000,1193.500000 
"/>
<path fill="none" opacity="1.000000" stroke="#000000" stroke-linecap="round" stroke-linejoin="round" stroke-width="7.000000"
	d="
M698.000000,1104.000000 
	C679.666687,1104.000000 661.333313,1104.000000 643.000000,1104.000000 
"/>
<path fill="none" opacity="1.000000" stroke="#000000" stroke-linecap="round" stroke-linejoin="round" stroke-width="3.000000"
	d="
M806.500000,1005.500000 
	C806.987732,1011.044739 809.049500,1016.195984 810.500000,1021.500000 
"/>
<path fill="none" opacity="1.000000" stroke="#000000" stroke-linecap="round" stroke-linejoin="round" stroke-width="4.000000"
	d="
M893.500000,888.500000 
	C895.838196,892.575073 896.770508,897.190796 898.500000,901.500000 
"/>
</svg>